<svg viewBox="0 0 138 138" fill="none" xmlns="http://www.w3.org/2000/svg">
    <g clip-path="url(#clip0)">
        <path opacity="0.2" fill-rule="evenodd" clip-rule="evenodd" d="M68.789 12.528C78.6772 12.4911 88.4018 15.0511 96.99 19.9522C105.573 24.85 112.72 31.9142 117.718 40.439C117.721 40.4445 117.724 40.45 117.727 40.4555L128.537 34.1232C128.532 34.1155 128.528 34.1078 128.523 34.1C125.172 28.3847 121.03 23.2067 116.242 18.7086C112.305 15.0103 107.93 11.7715 103.199 9.07158C98.468 6.37163 93.4545 4.25313 88.2677 2.74477C81.9507 0.90772 75.3766 -0.0243107 68.7422 0.00048192L68.789 12.528Z" fill="white"/>
        <path d="M68.9996 11.6493V0.89605C68.9996 0.648598 68.799 0.447998 68.5516 0.447998C68.3041 0.447998 68.1035 0.648598 68.1035 0.89605V11.6493C68.1035 11.8967 68.3041 12.0973 68.5516 12.0973C68.799 12.0973 68.9996 11.8967 68.9996 11.6493Z" fill="white"/>
        <path d="M68.5524 0.896104V11.6494V0.896104ZM69.4485 0.896109C69.4485 0.401202 69.0473 0 68.5524 0C68.0575 0 67.6562 0.401201 67.6562 0.896108V11.6493C67.6562 12.1443 68.0575 12.5455 68.5524 12.5455C69.0473 12.5455 69.4485 12.1443 69.4485 11.6493V0.896109Z" fill="#FFBD3C"/>
        <path d="M40.3278 19.3345L34.9522 10.0212C34.8285 9.80683 34.5545 9.73337 34.3402 9.85707C34.1259 9.98077 34.0524 10.2548 34.1761 10.4691L39.5517 19.7825C39.6754 19.9968 39.9494 20.0703 40.1637 19.9466C40.378 19.8229 40.4515 19.5489 40.3278 19.3345Z" fill="white"/>
        <path d="M35.3338 9.79924C35.0865 9.37096 34.5387 9.22438 34.1105 9.47189C33.6825 9.71928 33.536 10.2667 33.7833 10.6948L39.1604 20.005C39.4078 20.4333 39.9556 20.5799 40.3838 20.3324C40.8118 20.085 40.9582 19.5375 40.711 19.1094L35.3338 9.79924Z" fill="white"/>
        <path d="M19.328 40.3222L10.0168 34.9445C9.8025 34.8207 9.52849 34.8941 9.40473 35.1084C9.28098 35.3226 9.35436 35.5967 9.56863 35.7204L18.8799 41.0981C19.0941 41.2219 19.3682 41.1485 19.4919 40.9342C19.6157 40.7199 19.5423 40.4459 19.328 40.3222Z" fill="white"/>
        <path d="M9.79414 35.3334L19.1047 40.71L9.79414 35.3334ZM10.2466 34.5623C9.81848 34.3151 9.27104 34.4616 9.02365 34.8895C8.77613 35.3177 8.92271 35.8655 9.351 36.1129L18.6612 41.4901C19.0893 41.7373 19.6367 41.5908 19.8841 41.1628C20.1316 40.7346 19.985 40.1868 19.5568 39.9395L10.2466 34.5623Z" fill="white"/>
        <path d="M11.6495 69H0.896294C0.648842 69 0.448242 69.2006 0.448242 69.4481C0.448242 69.6955 0.648842 69.8961 0.896294 69.8961H11.6495C11.897 69.8961 12.0976 69.6955 12.0976 69.4481C12.0976 69.2006 11.897 69 11.6495 69Z" fill="white"/>
        <path d="M12.5455 69.4481C12.5455 68.9532 12.1443 68.552 11.6493 68.552H0.896109C0.401202 68.552 0 68.9532 0 69.4481C0 69.943 0.401201 70.3442 0.896108 70.3442H11.6493C12.1443 70.3442 12.5455 69.943 12.5455 69.4481Z" fill="white"/>
        <path d="M19.3341 97.6686L10.0218 103.045C9.80751 103.169 9.73409 103.443 9.85781 103.657C9.98154 103.872 10.2556 103.945 10.4699 103.821L19.7822 98.4447C19.9965 98.3209 20.0699 98.0469 19.9461 97.8326C19.8224 97.6183 19.5484 97.5449 19.3341 97.6686Z" fill="white"/>
        <path d="M20.3324 97.6168C20.085 97.1889 19.5375 97.0424 19.1094 97.2896L9.79924 102.667C9.37096 102.914 9.22438 103.462 9.47189 103.89C9.71928 104.318 10.2667 104.465 10.6948 104.217L20.005 98.8402C20.4333 98.5928 20.5799 98.045 20.3324 97.6168Z" fill="white"/>
        <path d="M40.3184 118.67L34.9418 127.982C34.8181 128.196 34.8915 128.47 35.1058 128.594C35.3201 128.718 35.5941 128.644 35.7178 128.43L41.0944 119.118C41.2182 118.904 41.1448 118.63 40.9305 118.506C40.7162 118.382 40.4421 118.456 40.3184 118.67Z" fill="white"/>
        <path d="M41.1631 118.116C40.7349 117.868 40.1871 118.015 39.9397 118.443L34.5626 127.753C34.3153 128.181 34.4618 128.729 34.8898 128.976C35.318 129.224 35.8658 129.077 36.1131 128.649L41.4903 119.339C41.7375 118.911 41.591 118.363 41.1631 118.116Z" fill="white"/>
        <path d="M69.8961 137.104V126.351C69.8961 126.103 69.6955 125.903 69.4481 125.903C69.2006 125.903 69 126.103 69 126.351V137.104C69 137.351 69.2006 137.552 69.4481 137.552C69.6955 137.552 69.8961 137.351 69.8961 137.104Z" fill="white"/>
        <path d="M69.4479 126.351V137.104V126.351ZM70.344 126.351C70.344 125.856 69.9428 125.455 69.4479 125.455C68.953 125.455 68.5518 125.856 68.5518 126.351V137.104C68.5518 137.599 68.953 138 69.4479 138C69.9428 138 70.344 137.599 70.344 137.104V126.351Z" fill="white"/>
        <path d="M103.825 127.538L98.4493 118.224C98.3256 118.01 98.0516 117.936 97.8373 118.06C97.623 118.184 97.5495 118.458 97.6732 118.672L103.049 127.986C103.172 128.2 103.446 128.273 103.661 128.15C103.875 128.026 103.949 127.752 103.825 127.538Z" fill="white"/>
        <path d="M98.0602 118.447L103.437 127.757L98.0602 118.447ZM98.8397 117.995C98.5923 117.567 98.0446 117.42 97.6164 117.667C97.1884 117.915 97.0419 118.462 97.2891 118.89L102.666 128.201C102.914 128.629 103.461 128.775 103.89 128.528C104.318 128.281 104.464 127.733 104.217 127.305L98.8397 117.995Z" fill="white"/>
        <path d="M128.42 102.282L119.109 96.9044C118.894 96.7807 118.62 96.8541 118.497 97.0683C118.373 97.2826 118.446 97.5566 118.66 97.6804L127.972 103.058C128.186 103.182 128.46 103.108 128.584 102.894C128.707 102.68 128.634 102.406 128.42 102.282Z" fill="white"/>
        <path d="M118.895 97.2899L128.205 102.666L118.895 97.2899ZM119.338 96.5098C118.91 96.2626 118.363 96.4091 118.115 96.8371C117.868 97.2653 118.015 97.813 118.443 98.0604L127.753 103.438C128.181 103.685 128.729 103.538 128.976 103.11C129.223 102.682 129.077 102.134 128.649 101.887L119.338 96.5098Z" fill="white"/>
        <path d="M137.104 68.104H126.35C126.103 68.104 125.902 68.3046 125.902 68.5521C125.902 68.7995 126.103 69.0001 126.35 69.0001H137.104C137.351 69.0001 137.552 68.7995 137.552 68.5521C137.552 68.3046 137.351 68.104 137.104 68.104Z" fill="white"/>
        <path d="M138.001 68.5519C138.001 68.057 137.599 67.6558 137.104 67.6558H126.351C125.856 67.6558 125.455 68.057 125.455 68.5519C125.455 69.0468 125.856 69.448 126.351 69.448H137.104C137.599 69.448 138.001 69.0468 138.001 68.5519Z" fill="white"/>
        <path d="M127.527 34.1718L118.215 39.5484C118.001 39.6722 117.927 39.9462 118.051 40.1605C118.175 40.3748 118.449 40.4482 118.663 40.3245L127.976 34.9478C128.19 34.8241 128.263 34.5501 128.14 34.3358C128.016 34.1215 127.742 34.0481 127.527 34.1718Z" fill="white"/>
        <path d="M128.528 34.11C128.28 33.682 127.733 33.5355 127.305 33.7828L117.995 39.1599C117.566 39.4073 117.42 39.9551 117.667 40.3833C117.915 40.8113 118.462 40.9578 118.89 40.7105L128.2 35.3333C128.629 35.086 128.775 34.5382 128.528 34.11Z" fill="#FFBD3C"/>
        <path d="M102.278 9.57311L96.9018 18.8854C96.778 19.0997 96.8515 19.3737 97.0657 19.4975C97.28 19.6212 97.5541 19.5478 97.6778 19.3335L103.054 10.0212C103.178 9.80687 103.105 9.53285 102.89 9.40913C102.676 9.2854 102.402 9.35882 102.278 9.57311Z" fill="white"/>
        <path d="M103.111 9.02389C102.683 8.77638 102.135 8.92296 101.888 9.35125L96.5108 18.6614C96.2636 19.0895 96.41 19.637 96.838 19.8844C97.2662 20.1319 97.814 19.9853 98.0614 19.557L103.439 10.2468C103.686 9.81873 103.539 9.27128 103.111 9.02389Z" fill="#FFBD3C"/>
        <path d="M56.2129 53.9756V89.1127H51.1898V58.9987H45.1621V53.9756H56.2129Z" fill="white"/>
        <path d="M93.3837 84.0896C93.3837 84.7757 93.253 85.4291 92.9917 86.0498C92.7303 86.6542 92.3709 87.1851 91.9135 87.6425C91.4561 88.0999 90.9171 88.4593 90.2963 88.7206C89.6919 88.982 89.0467 89.1127 88.3606 89.1127H70.7921C70.106 89.1127 69.4526 88.982 68.8319 88.7206C68.2274 88.4593 67.6966 88.0999 67.2392 87.6425C66.7818 87.1851 66.4224 86.6542 66.161 86.0498C65.8997 85.4291 65.769 84.7757 65.769 84.0896V58.9987C65.769 58.3126 65.8997 57.6673 66.161 57.0629C66.4224 56.4422 66.7818 55.9113 67.2392 55.4703C67.6966 55.0129 68.2274 54.6535 68.8319 54.3921C69.4526 54.1144 70.106 53.9756 70.7921 53.9756H88.3606C89.0467 53.9756 89.6919 54.1144 90.2963 54.3921C90.9171 54.6535 91.4561 55.0129 91.9135 55.4703C92.3709 55.9113 92.7303 56.4422 92.9917 57.0629C93.253 57.6673 93.3837 58.3126 93.3837 58.9987V84.0896ZM70.7921 58.9987V84.0896H88.3606V58.9987H70.7921Z" fill="white"/>
    </g>
    <defs>
        <clipPath id="clip0">
            <rect width="138" height="138" fill="white"/>
        </clipPath>
    </defs>
</svg>
