<svg width="131" height="25" viewBox="0 0 131 25" fill="none" xmlns="http://www.w3.org/2000/svg">
<path fill-rule="evenodd" clip-rule="evenodd" d="M32.0211 21.5124L19.7816 19.234L16.2224 16.6686L20.8414 15.2854L35.276 19.6153L25.2156 15.1346L17.6854 3.8149L25.8129 14.1707L34.7022 16.3768L26.5252 11.4214L31.9456 11.3712L23.8243 7.67641L28.9689 8.03571L21.7603 4.86336L26.2606 4.74931L16.1853 0.865728L10.473 0.00366211L11.3882 1.36114L10.2566 2.33357L9.00754 4.29069L9.32289 5.11719L7.3108 9.53789L7.57298 11.1578L9.23385 11.3405L10.0872 10.6857L10.1849 9.93397L13.0626 8.3386L13.5449 7.26193L14.2424 11.2252L11.2051 13.8286L11.0456 15.9083L8.79977 16.7802L6.68504 20.8257L8.41269 23.9637L9.89919 24.6013L10.447 20.9262L9.13863 20.5841L9.16583 19.386L32.0211 21.5124ZM7.11911 18.9384L8.20864 16.6944L5.72537 17.0009L1.15952 20.4296L0.113281 22.7325L4.1622 22.5608L3.98164 20.7312L5.11939 19.1261L7.11911 18.9384Z" fill="white"/>
<path fill-rule="evenodd" clip-rule="evenodd" d="M21.0486 16.1757L17.874 16.7017L36.5628 21.3321L21.0486 16.1757ZM7.57114 11.159L11.3789 1.35623L10.2634 2.32007L9.00941 4.28088L9.32229 5.10738L7.30649 9.53665L7.57114 11.159ZM6.67826 20.8318L11.0487 15.9071L8.79546 16.7802L6.67826 20.8318ZM3.9897 20.7092L5.11014 19.1224L5.71982 17.0034L1.16016 20.4333L3.9897 20.7092ZM16.1884 0.868175L10.4786 0.00488281L14.1924 1.92031L16.1884 0.868175ZM21.7696 4.85967L17.6971 3.8198L26.5184 11.403L21.7696 4.85967ZM25.1989 15.1358L22.211 12.2933L20.8457 15.2817L25.1989 15.1358ZM14.2431 11.235L11.2021 13.8261L19.6264 12.2749L14.2431 11.235Z" fill="white"/>
<path fill-rule="evenodd" clip-rule="evenodd" d="M17.9862 23.8497L30.0798 22.5376L14.5928 21.4069L17.9862 23.8497ZM14.1846 1.92401L10.4783 0L11.3811 1.35257L14.1846 1.92401ZM17.6956 3.81614L16.2264 6.65863L25.2048 15.1419L17.6956 3.81614ZM28.9321 8.02101L21.7742 4.85234L23.8184 7.68256L28.9321 8.02101ZM9.16246 19.3824L31.8804 21.4915L19.7584 19.2279L9.16246 19.3824ZM9.89952 24.6014L10.4486 20.9275L8.41797 23.9649L9.89952 24.6014ZM27.223 13.2339L34.6963 16.3866L26.5453 11.4227L27.223 13.2339ZM10.1753 9.92172L13.0704 8.32145L13.9868 6.28094L9.68805 9.10994L9.22429 11.3344L10.0863 10.6845L10.1753 9.92172Z" fill="white"/>
<path fill-rule="evenodd" clip-rule="evenodd" d="M0.121094 22.7227L4.16259 22.556L3.98822 20.708L0.121094 22.7227ZM9.16375 19.3812L16.2364 16.6772L11.0485 15.9071L9.16375 19.3812ZM16.1894 0.858398L14.1872 1.92035L26.2535 4.74321L16.1894 0.858398ZM17.7031 3.81738L25.8096 14.1609L26.5491 11.4288L17.7031 3.81738Z" fill="white"/>
<path fill-rule="evenodd" clip-rule="evenodd" d="M11.7692 3.94247L9.68048 9.13203L17.7041 3.81494L11.7692 3.94247ZM16.2139 16.676L19.6086 12.2725L14.6668 13.1873L16.2139 16.676ZM8.42277 23.9466L9.14005 20.5878L6.69141 20.8159L8.42277 23.9466ZM16.2263 6.64394L14.2377 11.2265L19.6197 12.2615L16.2263 6.64394Z" fill="white"/>
<path fill-rule="evenodd" clip-rule="evenodd" d="M51.042 5.82395H49.3422L44.5293 14.1244H43V16.7254H57.6611V14.1244H55.8809L51.042 5.82395ZM47.4625 14.1244L50.1921 9.34744L52.9453 14.1244H47.4625ZM77.5518 6.19015H74.4127L70.6557 10.9296V6.19015H68.1084V10.9061L64.3253 6.19015H61.1814L65.2486 11.1855L61.0275 16.9061H64.0649L67.0501 12.8474L68.106 13.0704V16.9085H70.6533V13.0704L71.6831 12.8474L74.6684 16.9061H77.7057L73.4847 11.1855L77.5518 6.19015ZM84.7841 12.4812H89.7509V10.1784H84.7841V8.56809H92.3526V6.16433H82.135V16.9085H92.7646V14.4789H84.7865V12.4812H84.7841ZM105.918 9.87326H100.281V6.16433H97.6295V16.9085H100.281V12.432H105.918V16.9085H108.569V6.16433H105.918V9.87326ZM112.996 8.64555H117.089V16.9085H119.741V8.64555H123.834V6.16433H112.998V8.64555H112.996ZM130.325 4.71362C129.875 4.23709 129.331 4 128.694 4C128.06 4 127.52 4.23709 127.073 4.71362C126.623 5.19249 126.398 5.76761 126.398 6.44132C126.398 7.12208 126.62 7.70189 127.065 8.17842C127.513 8.65964 128.055 8.89908 128.694 8.89908C129.331 8.89908 129.875 8.65964 130.325 8.17842C130.775 7.69719 131 7.11973 131 6.44132C131 5.76526 130.775 5.19015 130.325 4.71362ZM130.096 7.94602C129.71 8.35917 129.243 8.56574 128.694 8.56574C128.145 8.56574 127.676 8.35917 127.293 7.94602C126.909 7.53288 126.72 7.03053 126.72 6.44367C126.72 5.86151 126.912 5.36386 127.297 4.95306C127.683 4.53991 128.15 4.33334 128.697 4.33334C129.243 4.33334 129.712 4.53991 130.098 4.95306C130.484 5.36386 130.676 5.86151 130.676 6.44367C130.673 7.03287 130.482 7.53288 130.096 7.94602ZM129.698 7.60564C129.693 7.53522 129.691 7.46715 129.691 7.40611V7.20893C129.691 7.07278 129.646 6.93428 129.554 6.79344C129.461 6.65024 129.317 6.56339 129.12 6.53053C129.277 6.5047 129.397 6.4601 129.485 6.40142C129.648 6.28874 129.731 6.11033 129.731 5.8709C129.731 5.53287 129.601 5.30517 129.338 5.19015C129.191 5.12677 128.962 5.0939 128.649 5.0939H127.766V7.7817H128.211V6.72301H128.562C128.798 6.72301 128.964 6.75118 129.056 6.80987C129.215 6.91081 129.295 7.11503 129.295 7.42489V7.63851L129.305 7.72536C129.307 7.7371 129.31 7.74649 129.312 7.75588C129.314 7.76527 129.317 7.77466 129.319 7.7817H129.736L129.719 7.74884C129.71 7.72301 129.703 7.67841 129.698 7.60564ZM129.04 6.32865C128.945 6.36855 128.803 6.38968 128.616 6.38968H128.214V5.4155H128.595C128.841 5.4155 129.021 5.44836 129.135 5.51644C129.246 5.58217 129.303 5.71362 129.303 5.91081C129.3 6.11503 129.213 6.25588 129.04 6.32865Z" fill="white"/>
</svg>
