<svg width="168" height="144" viewBox="0 0 168 144" fill="none" xmlns="http://www.w3.org/2000/svg">
<path d="M13.5844 95.4113C20.2481 100.015 27.1952 104.418 34.9513 106.745C42.7074 109.073 51.4432 109.129 58.5693 105.285C59.4839 104.79 60.3796 104.225 61.0613 103.43C62.8383 101.367 62.7333 98.3165 62.4653 95.605C62.238 93.3819 61.3298 90.8946 61.3681 88.6588C61.3978 86.8456 62.5815 85.2989 63.4629 83.7181C64.3442 82.1374 64.9368 80.0583 63.8595 78.5998C63.105 77.584 61.7825 77.2049 60.5664 76.8536C58.5923 76.2786 56.6434 75.5771 54.7527 74.7655C53.5365 74.2497 52.1153 73.6568 51.4696 72.5246C50.9948 71.6897 51.1133 70.6673 51.628 69.8522C52.3045 68.7701 53.4405 68.1547 54.5386 67.5646C57.1016 66.1945 59.6647 64.8245 62.2277 63.4544C64.7325 62.1122 67.4372 60.5599 68.451 57.9035C69.5949 54.8916 68.2371 51.3606 66.834 48.4522L76.3442 41.6461C78.4099 40.1636 78.9605 37.3392 77.5905 35.1874C71.2841 25.3165 64.9025 13.9436 60.0144 3.74066" stroke="white" stroke-width="3" stroke-miterlimit="10" stroke-linecap="round" stroke-linejoin="round"/>
<path d="M14.379 125.94C16.3407 117.315 20.4956 109.7 26.7313 103.427" stroke="white" stroke-width="3" stroke-miterlimit="10" stroke-linecap="round" stroke-linejoin="round"/>
<path d="M165.284 123.78C163.72 119.285 162.168 114.798 160.604 110.304C156.867 99.5191 153.073 88.6406 147.199 78.8516C145.68 76.3137 143.985 73.8257 141.754 71.8794C137.655 68.3139 131.6 67.332 128.453 62.8967C125.092 58.1625 121.375 53.479 117.661 49.0148C109.139 46.913 100.19 46.5816 91.539 48.0446C90.2903 48.2586 89.0244 48.5176 87.9557 49.1903C86.8871 49.8631 86.0538 51.0489 86.1305 52.3065C86.3388 55.7557 90.6757 57.4447 94.033 58.252C95.9961 58.725 98.176 57.8471 100.133 57.3822C102.788 58.9185 105.66 60.273 110.759 60.0668C112.57 65.5006 115.245 70.779 118.599 75.4155C120.741 78.3866 121.15 82.2985 121.876 85.8808C122.09 86.9195 122.31 87.9766 122.198 89.0278C121.566 95.084 118.009 95.2629 117.799 95.2625C114.523 95.2716 111.439 93.6671 108.784 91.7411C106.13 89.8151 103.747 87.5119 100.972 85.7601C99.1106 84.5886 97.003 83.6769 94.8051 83.6803C90.9904 83.6923 87.5686 86.6413 86.3447 90.2567C90.5533 93.9611 94.8814 97.9814 99.0901 101.686C100.556 102.979 102.022 104.273 103.563 105.475C105.773 107.208 108.116 108.772 110.252 110.595C115.497 115.065 119.692 121.262 126.242 123.423C128.171 124.056 130.22 124.305 132.243 124.141C135.555 123.872 138.61 123.615 141.782 122.606" stroke="white" stroke-width="3" stroke-miterlimit="10" stroke-linecap="round" stroke-linejoin="round"/>
<path d="M133.71 132.171C133.471 129.53 132.883 126.928 131.97 124.448" stroke="white" stroke-width="3" stroke-miterlimit="10" stroke-linecap="round" stroke-linejoin="round"/>
<path d="M98.9027 74.6224L98.7651 65.0762C98.7118 61.4331 95.7181 58.5238 92.075 58.577L88.0846 58.6389C84.4415 58.6922 81.5321 61.6859 81.5854 65.3289L81.723 74.8751" stroke="white" stroke-width="3" stroke-miterlimit="10" stroke-linecap="round" stroke-linejoin="round"/>
<path d="M98.9027 74.6225C98.9134 75.1891 95.0818 75.7057 90.3332 75.7726C85.5846 75.8394 81.743 75.4393 81.7296 74.8634" stroke="white" stroke-width="3" stroke-miterlimit="10" stroke-linecap="round" stroke-linejoin="round"/>
<path d="M98.9038 74.6225L99.041 84.3787" stroke="white" stroke-width="3" stroke-miterlimit="10" stroke-linecap="round" stroke-linejoin="round"/>
<path d="M99.3147 102.482L99.3893 107.928C99.413 109.28 95.5828 110.436 90.8434 110.5C86.0947 110.567 82.2426 109.53 82.2189 108.178L81.7324 74.8725" stroke="white" stroke-width="3" stroke-miterlimit="10" stroke-linecap="round" stroke-linejoin="round"/>
<path d="M70.2165 66.8628L70.2575 70.7092L76.9663 68.7073L70.2165 66.8628Z" fill="#E3AC33"/>
<path d="M76.9331 65.3484L70.1694 62.5383L72.055 59.6349L76.9331 65.3484Z" fill="#E3AC33"/>
<path d="M77.0019 72.0757L70.3044 75.0339L72.2653 77.8962L77.0019 72.0757Z" fill="#E3AC33"/>
</svg>
