<svg viewBox="0 0 75 164" fill="none" xmlns="http://www.w3.org/2000/svg">
    <path d="M26.8452 102.408C26.0817 103.386 25.6348 104.615 25.6348 105.956V157.783" stroke="white" stroke-width="2" stroke-miterlimit="10" stroke-linecap="round" stroke-linejoin="round"/>
    <path d="M67.6011 157.783V105.956C67.6011 104.624 67.1449 103.395 66.3906 102.408" stroke="white" stroke-width="2" stroke-miterlimit="10" stroke-linecap="round" stroke-linejoin="round"/>
    <path d="M67.6012 157.783C67.6012 160.269 58.2152 162.29 46.6131 162.29C35.011 162.29 25.625 160.279 25.625 157.783" stroke="white" stroke-width="2" stroke-miterlimit="10" stroke-linecap="round" stroke-linejoin="round"/>
    <path d="M23.6143 78.4678V100.164C23.6143 102.585 33.9035 104.549 46.6137 104.549C59.3238 104.549 69.6131 102.585 69.6131 100.164V78.4678" stroke="white" stroke-width="2" stroke-miterlimit="10" stroke-linecap="round" stroke-linejoin="round"/>
    <path d="M69.6131 78.4678C69.6131 80.8888 59.3238 82.8535 46.6137 82.8535C33.9035 82.8535 23.6143 80.8888 23.6143 78.4678" stroke="white" stroke-width="2" stroke-miterlimit="10" stroke-linecap="round" stroke-linejoin="round"/>
    <path d="M28.4562 75.5906C24.9458 76.3634 23.6143 77.3691 23.6143 78.4678" stroke="white" stroke-width="2" stroke-miterlimit="10" stroke-linecap="round" stroke-linejoin="round"/>
    <path d="M69.6129 78.4678C69.6129 77.3691 68.0392 76.3634 64.5381 75.5906" stroke="white" stroke-width="2" stroke-miterlimit="10" stroke-linecap="round" stroke-linejoin="round"/>
    <path d="M29.2471 67.918V80.6654" stroke="white" stroke-width="2" stroke-miterlimit="10" stroke-linecap="round" stroke-linejoin="round"/>
    <path d="M63.9785 67.9177V80.6652" stroke="white" stroke-width="2" stroke-miterlimit="10" stroke-linecap="round" stroke-linejoin="round"/>
    <path d="M25.6251 36.1659C28.6513 30.6908 36.6871 26.0723 43.3821 26.0723H46.6038H49.8256C59.6306 26.0723 67.5826 34.0243 67.5826 43.8293V66.0186C67.5826 68.1788 58.1967 69.9294 46.5946 69.9294C34.9924 69.9294 25.6064 68.1788 25.6064 66.0186V49.4907" stroke="white" stroke-width="2" stroke-miterlimit="10" stroke-linecap="round" stroke-linejoin="round"/>
    <path d="M58.1412 28.3069C58.1412 29.806 52.9826 31.0258 46.6136 31.0258C40.2445 31.0258 35.0859 29.806 35.0859 28.3069" stroke="white" stroke-width="2" stroke-miterlimit="10" stroke-linecap="round" stroke-linejoin="round"/>
    <path d="M22.9155 50.4124C25.6308 50.4124 27.832 47.2232 27.832 43.2891C27.832 39.355 25.6308 36.1658 22.9155 36.1658C20.2002 36.1658 17.999 39.355 17.999 43.2891C17.999 47.2232 20.2002 50.4124 22.9155 50.4124Z" stroke="white" stroke-width="2" stroke-miterlimit="10" stroke-linecap="round" stroke-linejoin="round"/>
    <path d="M63.7464 12.9154L61.4093 10.5782L59.0721 12.9154L58.3271 12.1705L60.6643 9.83332L58.3271 7.49614L59.0721 6.75122L61.4093 9.0884L63.7372 6.76053L64.4821 7.50545L62.1542 9.83332L64.4914 12.1705L63.7464 12.9154Z" fill="white"/>
    <path d="M66.335 15.867L66.3443 14.7403L71.8008 9.81449C72.2664 9.38616 72.583 8.98576 72.732 8.60399C72.8902 8.22222 72.9647 7.82183 72.9647 7.40281C72.9647 6.9093 72.8437 6.45304 72.6109 6.05265C72.3781 5.65225 72.0615 5.32635 71.6611 5.09356C71.2607 4.86077 70.8231 4.73972 70.3296 4.73972C69.8175 4.73972 69.3612 4.86077 68.9515 5.11218C68.5511 5.35428 68.2345 5.68018 68.0017 6.08058C67.7689 6.48097 67.6572 6.91861 67.6665 7.3935H66.4095C66.4095 6.65789 66.5864 6.00609 66.9309 5.41946C67.2754 4.83284 67.7503 4.38589 68.3369 4.05067C68.9235 3.71546 69.6033 3.54785 70.3482 3.54785C71.0838 3.54785 71.7356 3.71546 72.3223 4.05999C72.9089 4.40451 73.3651 4.87008 73.7097 5.4474C74.0542 6.02471 74.2125 6.67651 74.2125 7.3935C74.2125 7.89632 74.1566 8.34327 74.0356 8.72504C73.9145 9.10681 73.7283 9.46065 73.4769 9.78655C73.2255 10.1125 72.8996 10.4477 72.5085 10.7922L67.6665 15.1686L67.471 14.6658H74.2218V15.8483H66.335V15.867Z" fill="white"/>
    <path d="M0.121296 40.5889L0.0654297 46.3527L10.187 43.5685L0.121296 40.5889Z" fill="#E3AC33"/>
    <path d="M10.2336 38.5217L0.186523 34.0988L3.11032 29.8062L10.2336 38.5217Z" fill="#E3AC33"/>
    <path d="M10.1402 48.6152L0 52.8427L2.84931 57.1911L10.1402 48.6152Z" fill="#E3AC33"/>
    <path d="M48.9412 6.54598V0H44.2854V6.54598H38.8848L46.6133 19.9359L54.3418 6.54598H48.9412Z" fill="#E3AC33"/>
</svg>
