<svg id="Слой_1" data-name="Слой 1" xmlns="http://www.w3.org/2000/svg" viewBox="0 0 1083.36 589.62"><defs><style>.cls-1{fill:none;stroke:#84accc;stroke-miterlimit:10;stroke-width:3px;}.cls-2{fill:#fff;}</style></defs><title>Векторный смарт-объект</title><line class="cls-1" x1="60.92" y1="198.92" x2="8.95" y2="135.5"/><line class="cls-1" x1="3.54" y1="222.24" x2="60.07" y2="199.37"/><line class="cls-1" x1="26.93" y1="262.38" x2="60.95" y2="199.25"/><line class="cls-1" x1="130.95" y1="188.75" x2="61.57" y2="198.75"/><line class="cls-1" x1="152.27" y1="20.75" x2="171.45" y2="103.5"/><line class="cls-1" x1="178.57" y1="51" x2="172.2" y2="104.12"/><line class="cls-1" x1="262.19" y1="33.21" x2="261.16" y2="94.93"/><line class="cls-1" x1="171.82" y1="103" x2="260.2" y2="94.5"/><line class="cls-1" x1="170.95" y1="104.12" x2="132.32" y2="187.25"/><line class="cls-1" x1="132.2" y1="190" x2="189.95" y2="265"/><line class="cls-1" x1="154.57" y1="294.5" x2="189.95" y2="266"/><line class="cls-1" x1="191.7" y1="336.75" x2="190.82" y2="265.75"/><line class="cls-1" x1="293.74" y1="299.85" x2="287.95" y2="254.87"/><line class="cls-1" x1="192.07" y1="264.12" x2="286.57" y2="255.62"/><line class="cls-1" x1="337.14" y1="340.36" x2="286.2" y2="253.62"/><line class="cls-1" x1="316.2" y1="172.37" x2="261.32" y2="95.75"/><line class="cls-1" x1="295.2" y1="64.87" x2="260.32" y2="95.75"/><line class="cls-1" x1="383.23" y1="100.46" x2="400.77" y2="161.36"/><line class="cls-1" x1="438.45" y1="124.37" x2="400.95" y2="161.75"/><line class="cls-1" x1="317.07" y1="172.5" x2="399.95" y2="161.87"/><line class="cls-1" x1="465.2" y1="229.37" x2="400.7" y2="162.25"/><line class="cls-1" x1="549.54" y1="151.77" x2="543.04" y2="206.24"/><line class="cls-1" x1="466.2" y1="229.37" x2="542.95" y2="207"/><line class="cls-1" x1="608.69" y1="255.84" x2="543.82" y2="206.75"/><line class="cls-1" x1="649.32" y1="97.12" x2="694.17" y2="139.86"/><line class="cls-1" x1="777.2" y1="40.12" x2="770.7" y2="102.12"/><line class="cls-1" x1="942.82" y1="63.75" x2="900.27" y2="3.54"/><line class="cls-1" x1="1018.12" y1="37.59" x2="943.57" y2="63.87"/><line class="cls-1" x1="966.46" y1="7.21" x2="942.82" y2="65.12"/><line class="cls-1" x1="942.7" y1="65.75" x2="917.57" y2="123.87"/><line class="cls-1" x1="957.91" y1="195.65" x2="918.2" y2="124.62"/><line class="cls-1" x1="836.82" y1="146.75" x2="916.57" y2="124.37"/><line class="cls-1" x1="771.45" y1="102" x2="837.95" y2="147.62"/><line class="cls-1" x1="837.32" y1="144.75" x2="826.82" y2="231.37"/><line class="cls-1" x1="751.18" y1="266.91" x2="828.57" y2="230.62"/><line class="cls-1" x1="903.53" y1="261.6" x2="824.57" y2="229.62"/><line class="cls-1" x1="902.32" y1="262.75" x2="959.45" y2="194.25"/><line class="cls-1" x1="1000.19" y1="370.48" x2="1079.82" y2="334.36"/><line class="cls-1" x1="1008.76" y1="310.72" x2="1000.45" y2="373.62"/><line class="cls-1" x1="954.32" y1="467.37" x2="1011.32" y2="431.12"/><line class="cls-1" x1="1025.79" y1="494.61" x2="1010.32" y2="428.75"/><line class="cls-1" x1="1079.5" y1="459.48" x2="1008.32" y2="430.25"/><line class="cls-1" x1="999.95" y1="369.12" x2="1011.57" y2="434.37"/><line class="cls-1" x1="921.37" y1="343.37" x2="1002.2" y2="370.87"/><line class="cls-1" x1="848.32" y1="377.25" x2="923.2" y2="342.25"/><line class="cls-1" x1="915.46" y1="404.01" x2="921.45" y2="340.62"/><line class="cls-1" x1="901.95" y1="258.75" x2="922.57" y2="345.87"/><line class="cls-1" x1="772.65" y1="100.75" x2="693.57" y2="140"/><line class="cls-1" x1="684.65" y1="221.28" x2="694.07" y2="136.92"/><line class="cls-1" x1="752.24" y1="267.92" x2="684.82" y2="221.67"/><line class="cls-1" x1="608.15" y1="256.67" x2="686.49" y2="219.58"/><line class="cls-1" x1="592.9" y1="338.33" x2="609.57" y2="252.83"/><line class="cls-1" x1="654.99" y1="387.92" x2="591.57" y2="337.08"/><line class="cls-1" x1="509.74" y1="369.33" x2="595.74" y2="337.17"/><line class="cls-1" x1="493.24" y1="424.67" x2="510.24" y2="367.58"/><line class="cls-1" x1="511.65" y1="370.75" x2="445.82" y2="310.42"/><line class="cls-1" x1="391.15" y1="357.33" x2="448.65" y2="309.67"/><line class="cls-1" x1="466.07" y1="227.83" x2="445.99" y2="314.17"/><line class="cls-1" x1="317.65" y1="169.75" x2="288.65" y2="252.75"/><line class="cls-1" x1="634.14" y1="472.41" x2="655.32" y2="385.08"/><line class="cls-1" x1="561.17" y1="498.34" x2="636.65" y2="470.92"/><line class="cls-1" x1="615.79" y1="533.45" x2="634.65" y2="469.92"/><line class="cls-1" x1="685.54" y1="509.63" x2="629.65" y2="469.08"/><line class="cls-1" x1="718.15" y1="491.42" x2="683.99" y2="510.92"/><line class="cls-1" x1="751.86" y1="514.89" x2="681.82" y2="509.75"/><line class="cls-1" x1="682.72" y1="586.07" x2="684.99" y2="506.08"/><circle class="cls-2" cx="60.92" cy="198.92" r="7.09"/><circle class="cls-2" cx="131.06" cy="189.16" r="7.09"/><circle class="cls-2" cx="171.56" cy="102.89" r="7.09"/><circle class="cls-2" cx="261.16" cy="94.93" r="7.09"/><circle class="cls-2" cx="316.75" cy="172.06" r="7.09"/><circle class="cls-2" cx="287.78" cy="255.42" r="7.09"/><circle class="cls-2" cx="190.61" cy="265.29" r="7.09"/><circle class="cls-2" cx="400.77" cy="161.36" r="7.09"/><circle class="cls-2" cx="465.52" cy="229.46" r="7.09"/><circle class="cls-2" cx="446.55" cy="311.48" r="7.09"/><circle class="cls-2" cx="510.06" cy="369.14" r="7.09"/><circle class="cls-2" cx="593.17" cy="338.06" r="7.09"/><circle class="cls-2" cx="655.07" cy="387.62" r="7.09"/><circle class="cls-2" cx="634.14" cy="472.41" r="7.09"/><circle class="cls-2" cx="685.54" cy="509.63" r="7.09"/><circle class="cls-2" cx="921.37" cy="343.37" r="7.09"/><circle class="cls-2" cx="1000.19" cy="370.48" r="7.09"/><circle class="cls-2" cx="1011.12" cy="431.67" r="7.09"/><circle class="cls-2" cx="543.04" cy="206.24" r="7.09"/><circle class="cls-2" cx="608.69" cy="255.84" r="7.09"/><circle class="cls-2" cx="684.65" cy="221.28" r="7.09"/><circle class="cls-2" cx="694.17" cy="139.86" r="7.09"/><circle class="cls-2" cx="770.92" cy="101.87" r="7.09"/><circle class="cls-2" cx="777.52" cy="40.34" r="7.09"/><circle class="cls-2" cx="837.44" cy="147.32" r="7.09"/><circle class="cls-2" cx="917.21" cy="124.12" r="7.09"/><circle class="cls-2" cx="957.91" cy="195.65" r="7.09"/><circle class="cls-2" cx="903.53" cy="261.6" r="7.09"/><circle class="cls-2" cx="827.2" cy="231.05" r="7.09"/><circle class="cls-2" cx="751.18" cy="266.91" r="7.09"/><circle class="cls-2" cx="943.2" cy="63.56" r="7.09"/><circle class="cls-2" cx="383.23" cy="100.46" r="7.09"/><circle class="cls-2" cx="438.91" cy="124.34" r="7.09"/><circle class="cls-2" cx="9.07" cy="135.81" r="3.54"/><circle class="cls-2" cx="152.27" cy="20.75" r="3.54"/><circle class="cls-2" cx="178.88" cy="51.56" r="3.54"/><circle class="cls-2" cx="262.19" cy="33.21" r="3.54"/><circle class="cls-2" cx="295.56" cy="64.68" r="3.54"/><circle class="cls-2" cx="549.54" cy="151.77" r="3.54"/><circle class="cls-2" cx="649.67" cy="97.35" r="3.54"/><circle class="cls-2" cx="900.27" cy="3.54" r="3.54"/><circle class="cls-2" cx="966.46" cy="7.21" r="3.54"/><circle class="cls-2" cx="1018.12" cy="37.59" r="3.54"/><circle class="cls-2" cx="3.54" cy="222.24" r="3.54"/><circle class="cls-2" cx="26.93" cy="262.38" r="3.54"/><circle class="cls-2" cx="154.93" cy="294.39" r="3.54"/><circle class="cls-2" cx="192.01" cy="336.84" r="3.54"/><circle class="cls-2" cx="293.74" cy="299.86" r="3.54"/><circle class="cls-2" cx="337.14" cy="340.36" r="3.54"/><circle class="cls-2" cx="391.25" cy="357.15" r="3.54"/><circle class="cls-2" cx="493.49" cy="424.71" r="3.54"/><circle class="cls-2" cx="561.17" cy="498.34" r="3.54"/><circle class="cls-2" cx="615.79" cy="533.45" r="3.54"/><circle class="cls-2" cx="682.72" cy="586.07" r="3.54"/><circle class="cls-2" cx="751.86" cy="514.89" r="3.54"/><circle class="cls-2" cx="718.3" cy="491.76" r="3.54"/><circle class="cls-2" cx="848.61" cy="377.14" r="3.54"/><circle class="cls-2" cx="915.46" cy="404.01" r="3.54"/><circle class="cls-2" cx="954.68" cy="467.34" r="3.54"/><circle class="cls-2" cx="1025.79" cy="494.61" r="3.54"/><circle class="cls-2" cx="1079.5" cy="459.48" r="3.54"/><circle class="cls-2" cx="1079.82" cy="334.36" r="3.54"/><circle class="cls-2" cx="1008.76" cy="310.72" r="3.54"/></svg>